<mxfile host="app.diagrams.net" modified="2021-06-26T11:14:19.380Z" agent="5.0 (Windows NT 10.0; Win64; x64) AppleWebKit/537.36 (KHTML, like Gecko) Chrome/91.0.4472.114 Safari/537.36 Edg/91.0.864.59" etag="Y-1oIHiVfrAFLbBvzQQU" version="14.8.1" type="github" pages="3">
  <diagram id="kgpKYQtTHZ0yAKxKKP6v" name="SUP Flow">
    <mxGraphModel dx="1054" dy="624" grid="1" gridSize="10" guides="1" tooltips="1" connect="1" arrows="1" fold="1" page="1" pageScale="1" pageWidth="850" pageHeight="1100" math="0" shadow="0">
      <root>
        <mxCell id="0" />
        <mxCell id="1" parent="0" />
        <mxCell id="cs5FUqzTph7XAXS6S7f7-13" style="edgeStyle=orthogonalEdgeStyle;rounded=0;orthogonalLoop=1;jettySize=auto;html=1;exitX=0;exitY=0.5;exitDx=0;exitDy=0;entryX=0.72;entryY=0.975;entryDx=0;entryDy=0;entryPerimeter=0;sketch=1;fillColor=#ffe6cc;strokeColor=#d79b00;startArrow=classic;startFill=1;" parent="1" source="cs5FUqzTph7XAXS6S7f7-1" target="cs5FUqzTph7XAXS6S7f7-9" edge="1">
          <mxGeometry relative="1" as="geometry">
            <mxPoint x="544" y="190" as="targetPoint" />
          </mxGeometry>
        </mxCell>
        <mxCell id="cs5FUqzTph7XAXS6S7f7-1" value="Virtual Machine 4 {Location 4}" style="rounded=0;whiteSpace=wrap;html=1;fillColor=#ffe6cc;strokeColor=#d79b00;fontFamily=Comic Sans MS;sketch=1;" parent="1" vertex="1">
          <mxGeometry x="570" y="440" width="120" height="40" as="geometry" />
        </mxCell>
        <mxCell id="cs5FUqzTph7XAXS6S7f7-42" style="edgeStyle=orthogonalEdgeStyle;rounded=0;orthogonalLoop=1;jettySize=auto;html=1;fontFamily=Comic Sans MS;startArrow=none;startFill=0;endArrow=block;endFill=1;sketch=1;fillColor=#dae8fc;strokeColor=#6c8ebf;" parent="1" source="cs5FUqzTph7XAXS6S7f7-2" edge="1">
          <mxGeometry relative="1" as="geometry">
            <mxPoint x="160" y="130" as="targetPoint" />
          </mxGeometry>
        </mxCell>
        <mxCell id="8vExhh5PX_ygUyaqjAEL-1" style="edgeStyle=orthogonalEdgeStyle;rounded=0;orthogonalLoop=1;jettySize=auto;html=1;exitX=1;exitY=0.5;exitDx=0;exitDy=0;fontFamily=Comic Sans MS;fontSize=12;startArrow=none;startFill=0;endArrow=block;endFill=1;sketch=1;fillColor=#dae8fc;strokeColor=#6c8ebf;entryX=1;entryY=0.75;entryDx=0;entryDy=0;" parent="1" source="cs5FUqzTph7XAXS6S7f7-2" target="cs5FUqzTph7XAXS6S7f7-1" edge="1">
          <mxGeometry relative="1" as="geometry">
            <mxPoint x="740" y="470" as="targetPoint" />
            <Array as="points">
              <mxPoint x="740" y="60" />
              <mxPoint x="740" y="470" />
            </Array>
          </mxGeometry>
        </mxCell>
        <mxCell id="cs5FUqzTph7XAXS6S7f7-2" value="Dynatrace SaaS" style="rounded=0;whiteSpace=wrap;html=1;fillColor=#dae8fc;strokeColor=#6c8ebf;labelBackgroundColor=none;fontFamily=Comic Sans MS;sketch=1;" parent="1" vertex="1">
          <mxGeometry x="200" y="40" width="480" height="40" as="geometry" />
        </mxCell>
        <mxCell id="8vExhh5PX_ygUyaqjAEL-3" style="edgeStyle=none;rounded=0;sketch=1;orthogonalLoop=1;jettySize=auto;html=1;exitX=1;exitY=0.5;exitDx=0;exitDy=0;fontFamily=Comic Sans MS;fontSize=12;startArrow=blockThin;startFill=1;endArrow=none;endFill=0;fillColor=#dae8fc;strokeColor=#6c8ebf;" parent="1" source="cs5FUqzTph7XAXS6S7f7-3" edge="1">
          <mxGeometry relative="1" as="geometry">
            <mxPoint x="740" y="390" as="targetPoint" />
          </mxGeometry>
        </mxCell>
        <mxCell id="DXjLTXu89vT1figk47Xa-22" style="edgeStyle=orthogonalEdgeStyle;rounded=0;sketch=1;orthogonalLoop=1;jettySize=auto;html=1;exitX=0;exitY=0.5;exitDx=0;exitDy=0;fontFamily=Comic Sans MS;fontSize=10;startArrow=classic;startFill=1;endArrow=classic;endFill=1;fillColor=#ffe6cc;strokeColor=#d79b00;entryX=0.38;entryY=1.025;entryDx=0;entryDy=0;entryPerimeter=0;" edge="1" parent="1" source="cs5FUqzTph7XAXS6S7f7-3" target="cs5FUqzTph7XAXS6S7f7-9">
          <mxGeometry relative="1" as="geometry">
            <mxPoint x="478" y="190" as="targetPoint" />
          </mxGeometry>
        </mxCell>
        <mxCell id="cs5FUqzTph7XAXS6S7f7-3" value="&lt;span&gt;Virtual Machine 3 {Location 3}&lt;/span&gt;" style="rounded=0;whiteSpace=wrap;html=1;fillColor=#ffe6cc;strokeColor=#d79b00;fontFamily=Comic Sans MS;sketch=1;" parent="1" vertex="1">
          <mxGeometry x="570" y="370" width="120" height="40" as="geometry" />
        </mxCell>
        <mxCell id="8vExhh5PX_ygUyaqjAEL-4" style="edgeStyle=none;rounded=0;sketch=1;orthogonalLoop=1;jettySize=auto;html=1;exitX=1;exitY=0.5;exitDx=0;exitDy=0;fontFamily=Comic Sans MS;fontSize=12;startArrow=classicThin;startFill=1;endArrow=none;endFill=0;fillColor=#dae8fc;strokeColor=#6c8ebf;" parent="1" source="cs5FUqzTph7XAXS6S7f7-4" edge="1">
          <mxGeometry relative="1" as="geometry">
            <mxPoint x="740" y="320" as="targetPoint" />
          </mxGeometry>
        </mxCell>
        <mxCell id="DXjLTXu89vT1figk47Xa-21" style="edgeStyle=orthogonalEdgeStyle;rounded=0;sketch=1;orthogonalLoop=1;jettySize=auto;html=1;exitX=0;exitY=0.5;exitDx=0;exitDy=0;fontFamily=Comic Sans MS;fontSize=10;startArrow=classic;startFill=1;endArrow=classic;endFill=1;entryX=0.25;entryY=1;entryDx=0;entryDy=0;fillColor=#ffe6cc;strokeColor=#d79b00;" edge="1" parent="1" source="cs5FUqzTph7XAXS6S7f7-4" target="cs5FUqzTph7XAXS6S7f7-9">
          <mxGeometry relative="1" as="geometry">
            <mxPoint x="450" y="240" as="targetPoint" />
          </mxGeometry>
        </mxCell>
        <mxCell id="cs5FUqzTph7XAXS6S7f7-4" value="&lt;span style=&quot;color: rgb(0, 0, 0); font-size: 12px; font-style: normal; font-weight: 400; letter-spacing: normal; text-align: center; text-indent: 0px; text-transform: none; word-spacing: 0px; display: inline; float: none;&quot;&gt;Virtual Machine 2 {Location 2}&lt;/span&gt;" style="rounded=0;whiteSpace=wrap;html=1;fillColor=#ffe6cc;strokeColor=#d79b00;labelBackgroundColor=none;fontFamily=Comic Sans MS;sketch=1;" parent="1" vertex="1">
          <mxGeometry x="570" y="300" width="120" height="40" as="geometry" />
        </mxCell>
        <mxCell id="cs5FUqzTph7XAXS6S7f7-10" style="edgeStyle=orthogonalEdgeStyle;rounded=0;orthogonalLoop=1;jettySize=auto;html=1;exitX=0;exitY=0.5;exitDx=0;exitDy=0;entryX=0.5;entryY=1;entryDx=0;entryDy=0;sketch=1;fillColor=#ffe6cc;strokeColor=#d79b00;startArrow=classic;startFill=1;" parent="1" source="cs5FUqzTph7XAXS6S7f7-5" target="cs5FUqzTph7XAXS6S7f7-9" edge="1">
          <mxGeometry relative="1" as="geometry" />
        </mxCell>
        <mxCell id="8vExhh5PX_ygUyaqjAEL-5" style="edgeStyle=none;rounded=0;sketch=1;orthogonalLoop=1;jettySize=auto;html=1;exitX=1;exitY=0.5;exitDx=0;exitDy=0;fontFamily=Comic Sans MS;fontSize=12;startArrow=classicThin;startFill=1;endArrow=none;endFill=0;fillColor=#dae8fc;strokeColor=#6c8ebf;" parent="1" source="cs5FUqzTph7XAXS6S7f7-5" edge="1">
          <mxGeometry relative="1" as="geometry">
            <mxPoint x="740" y="250" as="targetPoint" />
          </mxGeometry>
        </mxCell>
        <mxCell id="cs5FUqzTph7XAXS6S7f7-5" value="&lt;span style=&quot;color: rgb(0, 0, 0); font-size: 12px; font-style: normal; font-weight: 400; letter-spacing: normal; text-align: center; text-indent: 0px; text-transform: none; word-spacing: 0px; display: inline; float: none;&quot;&gt;Virtual Machine 1 {Location 1}&lt;/span&gt;" style="rounded=0;whiteSpace=wrap;html=1;fillColor=#ffe6cc;strokeColor=#d79b00;labelBackgroundColor=none;fontFamily=Comic Sans MS;sketch=1;" parent="1" vertex="1">
          <mxGeometry x="571" y="230" width="120" height="40" as="geometry" />
        </mxCell>
        <mxCell id="cs5FUqzTph7XAXS6S7f7-23" style="edgeStyle=orthogonalEdgeStyle;rounded=0;orthogonalLoop=1;jettySize=auto;html=1;exitX=0.25;exitY=0;exitDx=0;exitDy=0;entryX=0.519;entryY=0.975;entryDx=0;entryDy=0;entryPerimeter=0;startArrow=none;startFill=0;endArrow=classic;endFill=1;sketch=1;fillColor=#d5e8d4;strokeColor=#82b366;" parent="1" source="cs5FUqzTph7XAXS6S7f7-9" target="cs5FUqzTph7XAXS6S7f7-2" edge="1">
          <mxGeometry relative="1" as="geometry" />
        </mxCell>
        <mxCell id="cs5FUqzTph7XAXS6S7f7-36" style="edgeStyle=orthogonalEdgeStyle;rounded=0;orthogonalLoop=1;jettySize=auto;html=1;exitX=0;exitY=0.5;exitDx=0;exitDy=0;fontFamily=Comic Sans MS;startArrow=none;startFill=0;endArrow=block;endFill=1;sketch=1;fillColor=#d5e8d4;strokeColor=#82b366;" parent="1" source="cs5FUqzTph7XAXS6S7f7-39" target="cs5FUqzTph7XAXS6S7f7-35" edge="1">
          <mxGeometry relative="1" as="geometry" />
        </mxCell>
        <mxCell id="cs5FUqzTph7XAXS6S7f7-9" value="Synthetic Control" style="rounded=0;whiteSpace=wrap;html=1;fillColor=#d5e8d4;strokeColor=#82b366;fontFamily=Comic Sans MS;sketch=1;" parent="1" vertex="1">
          <mxGeometry x="400" y="160" width="200" height="40" as="geometry" />
        </mxCell>
        <mxCell id="cs5FUqzTph7XAXS6S7f7-17" value="" style="endArrow=none;dashed=1;html=1;dashPattern=1 3;strokeWidth=2;startArrow=none;sketch=1;fillColor=#dae8fc;strokeColor=#6c8ebf;" parent="1" source="cs5FUqzTph7XAXS6S7f7-25" edge="1">
          <mxGeometry width="50" height="50" relative="1" as="geometry">
            <mxPoint x="80" y="130" as="sourcePoint" />
            <mxPoint x="800" y="122" as="targetPoint" />
          </mxGeometry>
        </mxCell>
        <mxCell id="cs5FUqzTph7XAXS6S7f7-18" value="" style="endArrow=none;dashed=1;html=1;dashPattern=1 3;strokeWidth=2;sketch=1;fillColor=#dae8fc;strokeColor=#6c8ebf;" parent="1" edge="1">
          <mxGeometry width="50" height="50" relative="1" as="geometry">
            <mxPoint x="80" y="520" as="sourcePoint" />
            <mxPoint x="80" y="120" as="targetPoint" />
          </mxGeometry>
        </mxCell>
        <mxCell id="cs5FUqzTph7XAXS6S7f7-19" value="" style="endArrow=none;dashed=1;html=1;dashPattern=1 3;strokeWidth=2;sketch=1;fillColor=#dae8fc;strokeColor=#6c8ebf;" parent="1" edge="1">
          <mxGeometry width="50" height="50" relative="1" as="geometry">
            <mxPoint x="800" y="520" as="sourcePoint" />
            <mxPoint x="800" y="120" as="targetPoint" />
          </mxGeometry>
        </mxCell>
        <mxCell id="cs5FUqzTph7XAXS6S7f7-20" value="" style="endArrow=none;dashed=1;html=1;dashPattern=1 3;strokeWidth=2;sketch=1;fillColor=#dae8fc;strokeColor=#6c8ebf;" parent="1" edge="1">
          <mxGeometry width="50" height="50" relative="1" as="geometry">
            <mxPoint x="80" y="520" as="sourcePoint" />
            <mxPoint x="800" y="520" as="targetPoint" />
          </mxGeometry>
        </mxCell>
        <mxCell id="cs5FUqzTph7XAXS6S7f7-21" value="Datacenter Network" style="text;html=1;align=center;verticalAlign=middle;resizable=0;points=[];autosize=1;strokeColor=none;fontFamily=Comic Sans MS;rotation=90;sketch=1;" parent="1" vertex="1">
          <mxGeometry x="750" y="210" width="130" height="20" as="geometry" />
        </mxCell>
        <mxCell id="cs5FUqzTph7XAXS6S7f7-28" value="Endpoint" style="swimlane;labelBackgroundColor=none;fillColor=#e1d5e7;strokeColor=#9673a6;swimlaneFillColor=none;fontFamily=Comic Sans MS;sketch=1;" parent="1" vertex="1">
          <mxGeometry x="110" y="140" width="110" height="90" as="geometry">
            <mxRectangle x="110" y="140" width="80" height="23" as="alternateBounds" />
          </mxGeometry>
        </mxCell>
        <mxCell id="cs5FUqzTph7XAXS6S7f7-38" style="edgeStyle=orthogonalEdgeStyle;rounded=0;orthogonalLoop=1;jettySize=auto;html=1;entryX=1;entryY=0.5;entryDx=0;entryDy=0;fontFamily=Comic Sans MS;startArrow=none;startFill=0;endArrow=block;endFill=1;sketch=1;" parent="1" source="cs5FUqzTph7XAXS6S7f7-35" target="cs5FUqzTph7XAXS6S7f7-28" edge="1">
          <mxGeometry relative="1" as="geometry" />
        </mxCell>
        <mxCell id="cs5FUqzTph7XAXS6S7f7-35" value="" style="shape=cylinder3;whiteSpace=wrap;html=1;boundedLbl=1;backgroundOutline=1;size=15;labelBackgroundColor=none;fontFamily=Comic Sans MS;gradientColor=none;sketch=1;" parent="1" vertex="1">
          <mxGeometry x="275" y="240" width="60" height="80" as="geometry" />
        </mxCell>
        <mxCell id="cs5FUqzTph7XAXS6S7f7-37" value="Blob storage &lt;br&gt;to Store Screenshots" style="text;html=1;align=center;verticalAlign=middle;resizable=0;points=[];autosize=1;strokeColor=none;fontFamily=Comic Sans MS;sketch=1;" parent="1" vertex="1">
          <mxGeometry x="135" y="285" width="140" height="30" as="geometry" />
        </mxCell>
        <mxCell id="cs5FUqzTph7XAXS6S7f7-39" value="Screenshots" style="text;html=1;align=center;verticalAlign=middle;resizable=0;points=[];autosize=1;strokeColor=none;fontFamily=Comic Sans MS;sketch=1;" parent="1" vertex="1">
          <mxGeometry x="300" y="170" width="90" height="20" as="geometry" />
        </mxCell>
        <mxCell id="cs5FUqzTph7XAXS6S7f7-40" value="" style="edgeStyle=orthogonalEdgeStyle;rounded=0;orthogonalLoop=1;jettySize=auto;html=1;exitX=0;exitY=0.5;exitDx=0;exitDy=0;fontFamily=Comic Sans MS;startArrow=none;startFill=0;endArrow=none;endFill=1;sketch=1;fillColor=#d5e8d4;strokeColor=#82b366;" parent="1" source="cs5FUqzTph7XAXS6S7f7-9" target="cs5FUqzTph7XAXS6S7f7-39" edge="1">
          <mxGeometry relative="1" as="geometry">
            <mxPoint x="400" y="180" as="sourcePoint" />
            <mxPoint x="305" y="230" as="targetPoint" />
          </mxGeometry>
        </mxCell>
        <mxCell id="cs5FUqzTph7XAXS6S7f7-25" value="&lt;div style=&quot;color: rgb(0 , 0 , 0) ; font-size: 12px ; font-style: normal ; font-weight: 400 ; letter-spacing: normal ; text-indent: 0px ; text-transform: none ; word-spacing: 0px ; background-color: rgb(248 , 249 , 250) ; text-align: left&quot;&gt;&lt;span&gt;- Response Time&lt;/span&gt;&lt;/div&gt;&lt;div style=&quot;color: rgb(0 , 0 , 0) ; font-size: 12px ; font-style: normal ; font-weight: 400 ; letter-spacing: normal ; text-indent: 0px ; text-transform: none ; word-spacing: 0px ; background-color: rgb(248 , 249 , 250) ; text-align: left&quot;&gt;&lt;span&gt;- Location Info&lt;/span&gt;&lt;/div&gt;&lt;div style=&quot;color: rgb(0 , 0 , 0) ; font-size: 12px ; font-style: normal ; font-weight: 400 ; letter-spacing: normal ; text-indent: 0px ; text-transform: none ; word-spacing: 0px ; background-color: rgb(248 , 249 , 250) ; text-align: left&quot;&gt;&lt;span&gt;- Timing data&lt;/span&gt;&lt;/div&gt;" style="text;whiteSpace=wrap;html=1;fontFamily=Comic Sans MS;sketch=1;" parent="1" vertex="1">
          <mxGeometry x="470" y="90" width="100" height="60" as="geometry" />
        </mxCell>
        <mxCell id="cs5FUqzTph7XAXS6S7f7-41" value="" style="endArrow=none;dashed=1;html=1;dashPattern=1 3;strokeWidth=2;sketch=1;fillColor=#dae8fc;strokeColor=#6c8ebf;" parent="1" target="cs5FUqzTph7XAXS6S7f7-25" edge="1">
          <mxGeometry width="50" height="50" relative="1" as="geometry">
            <mxPoint x="80" y="120" as="sourcePoint" />
            <mxPoint x="800" y="130" as="targetPoint" />
          </mxGeometry>
        </mxCell>
        <mxCell id="cs5FUqzTph7XAXS6S7f7-43" value="Using VPN, Endpoint can be &lt;br&gt;accessed via Dynatrace Tenant" style="text;html=1;align=center;verticalAlign=middle;resizable=0;points=[];autosize=1;strokeColor=none;fontFamily=Comic Sans MS;sketch=1;" parent="1" vertex="1">
          <mxGeometry x="170" y="80" width="190" height="30" as="geometry" />
        </mxCell>
        <mxCell id="cs5FUqzTph7XAXS6S7f7-44" value="Single URL Plugin v2.0 high level flow of sending data after execution" style="text;html=1;align=center;verticalAlign=middle;resizable=0;points=[];autosize=1;strokeColor=none;fontFamily=Comic Sans MS;fontSize=12;sketch=1;" parent="1" vertex="1">
          <mxGeometry x="260" y="530" width="400" height="20" as="geometry" />
        </mxCell>
        <mxCell id="8vExhh5PX_ygUyaqjAEL-6" value="Credential Vault" style="text;html=1;align=center;verticalAlign=middle;resizable=0;points=[];autosize=1;strokeColor=none;fontSize=12;fontFamily=Comic Sans MS;rotation=90;" parent="1" vertex="1">
          <mxGeometry x="700" y="290" width="110" height="20" as="geometry" />
        </mxCell>
        <mxCell id="DXjLTXu89vT1figk47Xa-16" style="edgeStyle=none;rounded=0;sketch=1;orthogonalLoop=1;jettySize=auto;html=1;exitX=1;exitY=0.5;exitDx=0;exitDy=0;exitPerimeter=0;fontFamily=Comic Sans MS;entryX=-0.02;entryY=0.6;entryDx=0;entryDy=0;entryPerimeter=0;" edge="1" parent="1" source="DXjLTXu89vT1figk47Xa-3" target="DXjLTXu89vT1figk47Xa-14">
          <mxGeometry relative="1" as="geometry">
            <mxPoint x="350" y="435" as="targetPoint" />
          </mxGeometry>
        </mxCell>
        <mxCell id="DXjLTXu89vT1figk47Xa-3" value="" style="whiteSpace=wrap;html=1;shape=mxgraph.basic.isocube;isoAngle=15;sketch=1;" vertex="1" parent="1">
          <mxGeometry x="235" y="405" width="60" height="60" as="geometry" />
        </mxCell>
        <mxCell id="DXjLTXu89vT1figk47Xa-11" style="rounded=0;orthogonalLoop=1;jettySize=auto;html=1;entryX=0;entryY=0.5;entryDx=0;entryDy=0;entryPerimeter=0;sketch=1;" edge="1" parent="1" source="DXjLTXu89vT1figk47Xa-9" target="DXjLTXu89vT1figk47Xa-3">
          <mxGeometry relative="1" as="geometry" />
        </mxCell>
        <mxCell id="DXjLTXu89vT1figk47Xa-9" value="" style="dashed=0;outlineConnect=0;html=1;align=center;labelPosition=center;verticalLabelPosition=bottom;verticalAlign=top;shape=mxgraph.weblogos.chrome;sketch=1;" vertex="1" parent="1">
          <mxGeometry x="120" y="405" width="60" height="65" as="geometry" />
        </mxCell>
        <mxCell id="DXjLTXu89vT1figk47Xa-12" value="Adding URLs via &lt;br&gt;WebUI" style="text;html=1;align=center;verticalAlign=middle;resizable=0;points=[];autosize=1;strokeColor=none;fontFamily=Comic Sans MS;" vertex="1" parent="1">
          <mxGeometry x="95" y="370" width="110" height="30" as="geometry" />
        </mxCell>
        <mxCell id="DXjLTXu89vT1figk47Xa-13" value="Steps are collected and as a &lt;br&gt;package it is sent to DB" style="text;html=1;align=center;verticalAlign=middle;resizable=0;points=[];autosize=1;strokeColor=none;fontFamily=Comic Sans MS;" vertex="1" parent="1">
          <mxGeometry x="180" y="470" width="170" height="30" as="geometry" />
        </mxCell>
        <mxCell id="DXjLTXu89vT1figk47Xa-23" style="edgeStyle=orthogonalEdgeStyle;rounded=0;sketch=1;orthogonalLoop=1;jettySize=auto;html=1;entryX=0.1;entryY=1.05;entryDx=0;entryDy=0;entryPerimeter=0;fontFamily=Comic Sans MS;fontSize=10;startArrow=classic;startFill=1;endArrow=classic;endFill=1;fillColor=#d5e8d4;strokeColor=#82b366;" edge="1" parent="1" source="DXjLTXu89vT1figk47Xa-14" target="cs5FUqzTph7XAXS6S7f7-9">
          <mxGeometry relative="1" as="geometry" />
        </mxCell>
        <mxCell id="DXjLTXu89vT1figk47Xa-14" value="" style="aspect=fixed;html=1;points=[];align=center;image;fontSize=12;image=img/lib/mscae/CosmosDB.svg;sketch=1;fontFamily=Comic Sans MS;" vertex="1" parent="1">
          <mxGeometry x="380" y="405" width="50" height="50" as="geometry" />
        </mxCell>
        <mxCell id="DXjLTXu89vT1figk47Xa-17" value="NoSQL DB to &lt;br&gt;store JSON" style="text;html=1;align=center;verticalAlign=middle;resizable=0;points=[];autosize=1;strokeColor=none;fontFamily=Comic Sans MS;" vertex="1" parent="1">
          <mxGeometry x="360" y="465" width="90" height="30" as="geometry" />
        </mxCell>
        <mxCell id="DXjLTXu89vT1figk47Xa-19" value="URL properties for execution&lt;br style=&quot;font-size: 10px;&quot;&gt;is read by SC for execution" style="text;html=1;align=center;verticalAlign=middle;resizable=0;points=[];autosize=1;strokeColor=none;fontFamily=Comic Sans MS;rotation=-90;fontSize=10;" vertex="1" parent="1">
          <mxGeometry x="305" y="285" width="150" height="30" as="geometry" />
        </mxCell>
        <mxCell id="lpvoGlCxgdNxls6T76Ws-1" value="1" style="text;html=1;align=center;verticalAlign=middle;resizable=0;points=[];autosize=1;strokeColor=none;fontSize=12;fontFamily=Comic Sans MS;" vertex="1" parent="1">
          <mxGeometry x="95" y="425" width="20" height="20" as="geometry" />
        </mxCell>
        <mxCell id="lpvoGlCxgdNxls6T76Ws-2" value="2" style="text;html=1;align=center;verticalAlign=middle;resizable=0;points=[];autosize=1;strokeColor=none;fontSize=12;fontFamily=Comic Sans MS;" vertex="1" parent="1">
          <mxGeometry x="405" y="310" width="20" height="20" as="geometry" />
        </mxCell>
        <mxCell id="lpvoGlCxgdNxls6T76Ws-3" value="3" style="text;html=1;align=center;verticalAlign=middle;resizable=0;points=[];autosize=1;strokeColor=none;fontSize=12;fontFamily=Comic Sans MS;" vertex="1" parent="1">
          <mxGeometry x="551" y="295" width="20" height="20" as="geometry" />
        </mxCell>
        <mxCell id="lpvoGlCxgdNxls6T76Ws-4" value="5" style="text;html=1;align=center;verticalAlign=middle;resizable=0;points=[];autosize=1;strokeColor=none;fontSize=12;fontFamily=Comic Sans MS;" vertex="1" parent="1">
          <mxGeometry x="500" y="200" width="20" height="20" as="geometry" />
        </mxCell>
        <mxCell id="lpvoGlCxgdNxls6T76Ws-5" value="6" style="text;html=1;align=center;verticalAlign=middle;resizable=0;points=[];autosize=1;strokeColor=none;fontSize=12;fontFamily=Comic Sans MS;" vertex="1" parent="1">
          <mxGeometry x="430" y="130" width="20" height="20" as="geometry" />
        </mxCell>
        <mxCell id="lpvoGlCxgdNxls6T76Ws-6" value="6" style="text;html=1;align=center;verticalAlign=middle;resizable=0;points=[];autosize=1;strokeColor=none;fontSize=12;fontFamily=Comic Sans MS;" vertex="1" parent="1">
          <mxGeometry x="285" y="190" width="20" height="20" as="geometry" />
        </mxCell>
        <mxCell id="lpvoGlCxgdNxls6T76Ws-7" value="4" style="text;html=1;align=center;verticalAlign=middle;resizable=0;points=[];autosize=1;strokeColor=none;fontSize=12;fontFamily=Comic Sans MS;" vertex="1" parent="1">
          <mxGeometry x="700" y="295" width="20" height="20" as="geometry" />
        </mxCell>
        <mxCell id="lpvoGlCxgdNxls6T76Ws-8" value="7" style="text;html=1;align=center;verticalAlign=middle;resizable=0;points=[];autosize=1;strokeColor=none;fontSize=12;fontFamily=Comic Sans MS;" vertex="1" parent="1">
          <mxGeometry x="230" y="210" width="20" height="20" as="geometry" />
        </mxCell>
        <mxCell id="lpvoGlCxgdNxls6T76Ws-9" value="7" style="text;html=1;align=center;verticalAlign=middle;resizable=0;points=[];autosize=1;strokeColor=none;fontSize=12;fontFamily=Comic Sans MS;" vertex="1" parent="1">
          <mxGeometry x="140" y="70" width="20" height="20" as="geometry" />
        </mxCell>
      </root>
    </mxGraphModel>
  </diagram>
  <diagram id="M4t5dClH7tCgprfEHmUJ" name="Execution">
    <mxGraphModel dx="1054" dy="624" grid="1" gridSize="10" guides="1" tooltips="1" connect="1" arrows="1" fold="1" page="1" pageScale="1" pageWidth="850" pageHeight="1100" math="0" shadow="0">
      <root>
        <mxCell id="YWHHlmwAqQzCcZ3CIUgE-0" />
        <mxCell id="YWHHlmwAqQzCcZ3CIUgE-1" parent="YWHHlmwAqQzCcZ3CIUgE-0" />
        <mxCell id="AzxH2ljfNCPIP9j0Uiv--3" style="edgeStyle=none;rounded=0;sketch=1;orthogonalLoop=1;jettySize=auto;html=1;exitX=0.5;exitY=1;exitDx=0;exitDy=0;entryX=0.5;entryY=0;entryDx=0;entryDy=0;fontFamily=Comic Sans MS;fontSize=12;startArrow=none;startFill=0;endArrow=classic;endFill=1;fillColor=#d5e8d4;strokeColor=#82b366;" parent="YWHHlmwAqQzCcZ3CIUgE-1" source="Gf0AsW805ku4NQ3ToZGd-0" target="CjHnSmW8fK2lE9QIITB1-1" edge="1">
          <mxGeometry relative="1" as="geometry" />
        </mxCell>
        <mxCell id="MZ7ybHyvtAJX444dCxZd-2" style="edgeStyle=orthogonalEdgeStyle;rounded=0;sketch=1;orthogonalLoop=1;jettySize=auto;html=1;exitX=1;exitY=0.75;exitDx=0;exitDy=0;entryX=-0.071;entryY=0.778;entryDx=0;entryDy=0;entryPerimeter=0;fontFamily=Comic Sans MS;fontSize=12;startArrow=classic;startFill=1;endArrow=none;endFill=0;" parent="YWHHlmwAqQzCcZ3CIUgE-1" source="Gf0AsW805ku4NQ3ToZGd-0" target="AzxH2ljfNCPIP9j0Uiv--0" edge="1">
          <mxGeometry relative="1" as="geometry" />
        </mxCell>
        <mxCell id="Gf0AsW805ku4NQ3ToZGd-0" value="&lt;span style=&quot;color: rgb(0 , 0 , 0) ; font-size: 12px ; font-style: normal ; font-weight: 400 ; letter-spacing: normal ; text-align: center ; text-indent: 0px ; text-transform: none ; word-spacing: 0px ; display: inline ; float: none&quot;&gt;Synthetic Control&lt;/span&gt;" style="rounded=0;whiteSpace=wrap;html=1;fillColor=#d5e8d4;strokeColor=#82b366;labelBackgroundColor=none;sketch=1;fontFamily=Comic Sans MS;" parent="YWHHlmwAqQzCcZ3CIUgE-1" vertex="1">
          <mxGeometry x="45" y="130" width="200" height="80" as="geometry" />
        </mxCell>
        <mxCell id="AzxH2ljfNCPIP9j0Uiv--7" style="edgeStyle=none;rounded=0;sketch=1;orthogonalLoop=1;jettySize=auto;html=1;exitX=1;exitY=0.5;exitDx=0;exitDy=0;entryX=0;entryY=0.5;entryDx=0;entryDy=0;entryPerimeter=0;fontFamily=Comic Sans MS;fontSize=12;startArrow=none;startFill=0;endArrow=none;endFill=0;" parent="YWHHlmwAqQzCcZ3CIUgE-1" source="CjHnSmW8fK2lE9QIITB1-1" target="AzxH2ljfNCPIP9j0Uiv--6" edge="1">
          <mxGeometry relative="1" as="geometry" />
        </mxCell>
        <mxCell id="CjHnSmW8fK2lE9QIITB1-1" value="" style="shape=internalStorage;whiteSpace=wrap;html=1;dx=15;dy=15;rounded=1;arcSize=8;strokeWidth=2;labelBackgroundColor=none;sketch=1;fontFamily=Comic Sans MS;fontSize=12;gradientColor=none;" parent="YWHHlmwAqQzCcZ3CIUgE-1" vertex="1">
          <mxGeometry x="85" y="250" width="120" height="120" as="geometry" />
        </mxCell>
        <mxCell id="CjHnSmW8fK2lE9QIITB1-0" value="" style="strokeWidth=2;html=1;shape=mxgraph.flowchart.multi-document;whiteSpace=wrap;labelBackgroundColor=none;sketch=1;fontFamily=Comic Sans MS;fontSize=12;gradientColor=none;" parent="YWHHlmwAqQzCcZ3CIUgE-1" vertex="1">
          <mxGeometry x="115" y="290" width="70" height="50" as="geometry" />
        </mxCell>
        <mxCell id="AzxH2ljfNCPIP9j0Uiv--1" style="edgeStyle=none;rounded=0;sketch=1;orthogonalLoop=1;jettySize=auto;html=1;exitX=0;exitY=0.5;exitDx=0;exitDy=0;exitPerimeter=0;entryX=1;entryY=0.425;entryDx=0;entryDy=0;entryPerimeter=0;fontFamily=Comic Sans MS;fontSize=12;startArrow=classicThin;startFill=1;endArrow=none;endFill=0;" parent="YWHHlmwAqQzCcZ3CIUgE-1" source="AzxH2ljfNCPIP9j0Uiv--0" target="Gf0AsW805ku4NQ3ToZGd-0" edge="1">
          <mxGeometry relative="1" as="geometry" />
        </mxCell>
        <mxCell id="AzxH2ljfNCPIP9j0Uiv--0" value="" style="strokeWidth=2;html=1;shape=mxgraph.flowchart.database;whiteSpace=wrap;labelBackgroundColor=none;sketch=1;fontFamily=Comic Sans MS;fontSize=12;gradientColor=none;" parent="YWHHlmwAqQzCcZ3CIUgE-1" vertex="1">
          <mxGeometry x="385" y="120" width="70" height="90" as="geometry" />
        </mxCell>
        <mxCell id="AzxH2ljfNCPIP9j0Uiv--4" value="Database to store monitors (JSON/MySQL)" style="text;html=1;align=center;verticalAlign=middle;resizable=0;points=[];autosize=1;strokeColor=none;fontSize=12;fontFamily=Comic Sans MS;" parent="YWHHlmwAqQzCcZ3CIUgE-1" vertex="1">
          <mxGeometry x="285" y="210" width="270" height="20" as="geometry" />
        </mxCell>
        <mxCell id="AzxH2ljfNCPIP9j0Uiv--5" value="Receiving JSON data to execute&amp;nbsp;&lt;br&gt;given URL" style="text;html=1;align=center;verticalAlign=middle;resizable=0;points=[];autosize=1;strokeColor=none;fontSize=12;fontFamily=Comic Sans MS;" parent="YWHHlmwAqQzCcZ3CIUgE-1" vertex="1">
          <mxGeometry x="55" y="380" width="200" height="30" as="geometry" />
        </mxCell>
        <mxCell id="AzxH2ljfNCPIP9j0Uiv--9" style="edgeStyle=none;rounded=0;sketch=1;orthogonalLoop=1;jettySize=auto;html=1;exitX=1;exitY=0.5;exitDx=0;exitDy=0;exitPerimeter=0;entryX=0;entryY=0.5;entryDx=0;entryDy=0;fontFamily=Comic Sans MS;fontSize=12;startArrow=none;startFill=0;endArrow=none;endFill=0;" parent="YWHHlmwAqQzCcZ3CIUgE-1" source="AzxH2ljfNCPIP9j0Uiv--6" target="AzxH2ljfNCPIP9j0Uiv--8" edge="1">
          <mxGeometry relative="1" as="geometry" />
        </mxCell>
        <mxCell id="AzxH2ljfNCPIP9j0Uiv--6" value="" style="strokeWidth=2;html=1;shape=mxgraph.flowchart.document2;whiteSpace=wrap;size=0.25;labelBackgroundColor=none;sketch=1;fontFamily=Comic Sans MS;fontSize=12;gradientColor=none;" parent="YWHHlmwAqQzCcZ3CIUgE-1" vertex="1">
          <mxGeometry x="245" y="290" width="70" height="40" as="geometry" />
        </mxCell>
        <mxCell id="AzxH2ljfNCPIP9j0Uiv--8" value="Virtual &lt;br&gt;Machine" style="rounded=1;whiteSpace=wrap;html=1;absoluteArcSize=1;arcSize=14;strokeWidth=2;labelBackgroundColor=none;sketch=1;fontFamily=Comic Sans MS;fontSize=12;fillColor=#ffe6cc;strokeColor=#d79b00;" parent="YWHHlmwAqQzCcZ3CIUgE-1" vertex="1">
          <mxGeometry x="360" y="260" width="415" height="100" as="geometry" />
        </mxCell>
        <mxCell id="B6-f6HD0yNqJIi1gI1wK-7" value="" style="edgeStyle=none;rounded=0;sketch=1;orthogonalLoop=1;jettySize=auto;html=1;fontFamily=Comic Sans MS;fontSize=12;startArrow=none;startFill=0;endArrow=classic;endFill=1;entryX=0.442;entryY=0.025;entryDx=0;entryDy=0;entryPerimeter=0;" parent="YWHHlmwAqQzCcZ3CIUgE-1" source="B6-f6HD0yNqJIi1gI1wK-0" target="B6-f6HD0yNqJIi1gI1wK-6" edge="1">
          <mxGeometry relative="1" as="geometry" />
        </mxCell>
        <mxCell id="B6-f6HD0yNqJIi1gI1wK-0" value="" style="dashed=0;outlineConnect=0;html=1;align=center;labelPosition=center;verticalLabelPosition=bottom;verticalAlign=top;shape=mxgraph.weblogos.chrome;labelBackgroundColor=none;sketch=1;fontFamily=Comic Sans MS;fontSize=12;gradientColor=none;" parent="YWHHlmwAqQzCcZ3CIUgE-1" vertex="1">
          <mxGeometry x="605" y="421.5" width="60" height="57" as="geometry" />
        </mxCell>
        <mxCell id="B6-f6HD0yNqJIi1gI1wK-3" style="edgeStyle=none;rounded=0;sketch=1;orthogonalLoop=1;jettySize=auto;html=1;fontFamily=Comic Sans MS;fontSize=12;startArrow=none;startFill=0;endArrow=none;endFill=0;" parent="YWHHlmwAqQzCcZ3CIUgE-1" source="B6-f6HD0yNqJIi1gI1wK-1" edge="1">
          <mxGeometry relative="1" as="geometry">
            <mxPoint x="595" y="450" as="targetPoint" />
          </mxGeometry>
        </mxCell>
        <mxCell id="B6-f6HD0yNqJIi1gI1wK-1" value="&lt;h1&gt;Execution&lt;/h1&gt;&lt;p&gt;Once VM receives the data from Synthetic control for the execution, plugin will start running.&lt;/p&gt;" style="text;html=1;strokeColor=none;fillColor=none;spacing=5;spacingTop=-20;whiteSpace=wrap;overflow=hidden;rounded=0;labelBackgroundColor=none;sketch=1;fontFamily=Comic Sans MS;fontSize=12;" parent="YWHHlmwAqQzCcZ3CIUgE-1" vertex="1">
          <mxGeometry x="360" y="390" width="165" height="120" as="geometry" />
        </mxCell>
        <mxCell id="B6-f6HD0yNqJIi1gI1wK-4" value="&lt;div&gt;&lt;span&gt;Collects the data required from the execution&lt;/span&gt;&lt;/div&gt;&lt;div style=&quot;text-align: right&quot;&gt;&lt;span&gt;- Response Time&lt;/span&gt;&lt;/div&gt;&lt;div style=&quot;text-align: right&quot;&gt;&lt;span&gt;- Current Time&lt;/span&gt;&lt;/div&gt;&lt;div style=&quot;text-align: right&quot;&gt;&lt;span&gt;- Screenshots&lt;/span&gt;&lt;/div&gt;" style="text;html=1;align=left;verticalAlign=middle;resizable=0;points=[];autosize=1;strokeColor=none;fontSize=12;fontFamily=Comic Sans MS;" parent="YWHHlmwAqQzCcZ3CIUgE-1" vertex="1">
          <mxGeometry x="505" y="390" width="270" height="60" as="geometry" />
        </mxCell>
        <mxCell id="B6-f6HD0yNqJIi1gI1wK-10" style="edgeStyle=orthogonalEdgeStyle;rounded=0;sketch=1;orthogonalLoop=1;jettySize=auto;html=1;exitX=1;exitY=0.5;exitDx=0;exitDy=0;fontFamily=Comic Sans MS;fontSize=12;startArrow=none;startFill=0;endArrow=classic;endFill=1;curved=1;fillColor=#ffe6cc;strokeColor=#d79b00;" parent="YWHHlmwAqQzCcZ3CIUgE-1" source="B6-f6HD0yNqJIi1gI1wK-6" edge="1">
          <mxGeometry relative="1" as="geometry">
            <mxPoint x="455" y="170" as="targetPoint" />
            <Array as="points">
              <mxPoint x="825" y="550" />
            </Array>
          </mxGeometry>
        </mxCell>
        <mxCell id="B6-f6HD0yNqJIi1gI1wK-12" style="edgeStyle=orthogonalEdgeStyle;curved=1;rounded=0;sketch=1;orthogonalLoop=1;jettySize=auto;html=1;exitX=0;exitY=0.5;exitDx=0;exitDy=0;fontFamily=Comic Sans MS;fontSize=12;startArrow=none;startFill=0;endArrow=classic;endFill=1;entryX=-0.015;entryY=0.588;entryDx=0;entryDy=0;entryPerimeter=0;fillColor=#ffe6cc;strokeColor=#d79b00;" parent="YWHHlmwAqQzCcZ3CIUgE-1" source="B6-f6HD0yNqJIi1gI1wK-6" target="Gf0AsW805ku4NQ3ToZGd-0" edge="1">
          <mxGeometry relative="1" as="geometry">
            <mxPoint x="25" y="360" as="targetPoint" />
            <Array as="points">
              <mxPoint x="25" y="550" />
              <mxPoint x="25" y="177" />
            </Array>
          </mxGeometry>
        </mxCell>
        <mxCell id="B6-f6HD0yNqJIi1gI1wK-6" value="Plugin Controller" style="shape=hexagon;perimeter=hexagonPerimeter2;whiteSpace=wrap;html=1;fixedSize=1;labelBackgroundColor=none;sketch=1;fontFamily=Comic Sans MS;fontSize=12;gradientColor=none;" parent="YWHHlmwAqQzCcZ3CIUgE-1" vertex="1">
          <mxGeometry x="585" y="510" width="120" height="80" as="geometry" />
        </mxCell>
        <mxCell id="B6-f6HD0yNqJIi1gI1wK-11" value="Screenshots will be sent &lt;br&gt;to main storage" style="text;html=1;align=center;verticalAlign=middle;resizable=0;points=[];autosize=1;strokeColor=none;fontSize=12;fontFamily=Comic Sans MS;" parent="YWHHlmwAqQzCcZ3CIUgE-1" vertex="1">
          <mxGeometry x="480" y="130" width="150" height="30" as="geometry" />
        </mxCell>
        <mxCell id="B6-f6HD0yNqJIi1gI1wK-13" value="Other captured details are sent to controller, such as&lt;br&gt;response time &amp;amp; execution time" style="text;html=1;align=center;verticalAlign=middle;resizable=0;points=[];autosize=1;strokeColor=none;fontSize=12;fontFamily=Comic Sans MS;rotation=10;" parent="YWHHlmwAqQzCcZ3CIUgE-1" vertex="1">
          <mxGeometry x="115" y="540" width="320" height="30" as="geometry" />
        </mxCell>
        <mxCell id="B6-f6HD0yNqJIi1gI1wK-14" value="URL details" style="text;html=1;align=center;verticalAlign=middle;resizable=0;points=[];autosize=1;strokeColor=none;fontSize=12;fontFamily=Comic Sans MS;" parent="YWHHlmwAqQzCcZ3CIUgE-1" vertex="1">
          <mxGeometry x="235" y="260" width="80" height="20" as="geometry" />
        </mxCell>
        <mxCell id="MZ7ybHyvtAJX444dCxZd-0" value="Read URLs" style="text;html=1;align=center;verticalAlign=middle;resizable=0;points=[];autosize=1;strokeColor=none;fontSize=12;fontFamily=Comic Sans MS;" parent="YWHHlmwAqQzCcZ3CIUgE-1" vertex="1">
          <mxGeometry x="265" y="140" width="80" height="20" as="geometry" />
        </mxCell>
        <mxCell id="MZ7ybHyvtAJX444dCxZd-3" value="&lt;font style=&quot;font-size: 9px&quot;&gt;URL Properties sent by DB&lt;/font&gt;" style="text;html=1;align=center;verticalAlign=middle;resizable=0;points=[];autosize=1;strokeColor=none;fontSize=12;fontFamily=Comic Sans MS;" parent="YWHHlmwAqQzCcZ3CIUgE-1" vertex="1">
          <mxGeometry x="245" y="170" width="130" height="20" as="geometry" />
        </mxCell>
        <mxCell id="QxU-eEhK24Sgv1y1wa-F-5" style="edgeStyle=orthogonalEdgeStyle;rounded=0;sketch=1;orthogonalLoop=1;jettySize=auto;html=1;exitX=0.75;exitY=1;exitDx=0;exitDy=0;fontFamily=Comic Sans MS;fontSize=12;startArrow=none;startFill=0;endArrow=classic;endFill=1;fillColor=#dae8fc;strokeColor=#6c8ebf;" parent="YWHHlmwAqQzCcZ3CIUgE-1" source="QxU-eEhK24Sgv1y1wa-F-6" edge="1">
          <mxGeometry relative="1" as="geometry">
            <mxPoint x="670" y="460" as="targetPoint" />
            <Array as="points">
              <mxPoint x="835" y="123" />
              <mxPoint x="835" y="298" />
              <mxPoint x="800" y="298" />
              <mxPoint x="800" y="460" />
            </Array>
          </mxGeometry>
        </mxCell>
        <mxCell id="QxU-eEhK24Sgv1y1wa-F-2" value="Dynatrace SaaS" style="rounded=0;whiteSpace=wrap;html=1;shadow=0;glass=0;labelBackgroundColor=none;sketch=1;fontFamily=Comic Sans MS;fontSize=12;fillColor=#dae8fc;strokeColor=#6c8ebf;" parent="YWHHlmwAqQzCcZ3CIUgE-1" vertex="1">
          <mxGeometry x="680" y="40" width="160" height="40" as="geometry" />
        </mxCell>
        <mxCell id="QxU-eEhK24Sgv1y1wa-F-6" value="Credential Vault" style="text;html=1;align=center;verticalAlign=middle;resizable=0;points=[];autosize=1;strokeColor=none;fontSize=12;fontFamily=Comic Sans MS;rotation=-90;" parent="YWHHlmwAqQzCcZ3CIUgE-1" vertex="1">
          <mxGeometry x="750" y="140" width="110" height="20" as="geometry" />
        </mxCell>
        <mxCell id="QxU-eEhK24Sgv1y1wa-F-7" value="" style="edgeStyle=orthogonalEdgeStyle;rounded=0;sketch=1;orthogonalLoop=1;jettySize=auto;html=1;exitX=0.75;exitY=1;exitDx=0;exitDy=0;fontFamily=Comic Sans MS;fontSize=12;startArrow=none;startFill=0;endArrow=none;endFill=1;fillColor=#dae8fc;strokeColor=#6c8ebf;" parent="YWHHlmwAqQzCcZ3CIUgE-1" source="QxU-eEhK24Sgv1y1wa-F-2" target="QxU-eEhK24Sgv1y1wa-F-6" edge="1">
          <mxGeometry relative="1" as="geometry">
            <mxPoint x="800" y="80" as="sourcePoint" />
            <mxPoint x="640" y="390" as="targetPoint" />
          </mxGeometry>
        </mxCell>
      </root>
    </mxGraphModel>
  </diagram>
  <diagram id="mUu8d0nQUbPUP7PFX2y0" name="Synthetic Control">
    <mxGraphModel dx="1054" dy="624" grid="1" gridSize="10" guides="1" tooltips="1" connect="1" arrows="1" fold="1" page="1" pageScale="1" pageWidth="850" pageHeight="1100" background="none" math="0" shadow="0">
      <root>
        <mxCell id="QvUOqVYTQdIpEU6lqNF--0" />
        <mxCell id="QvUOqVYTQdIpEU6lqNF--1" parent="QvUOqVYTQdIpEU6lqNF--0" />
        <mxCell id="OY84xX7fRf7kpnk30Q0Z-0" value="Dynatrace SaaS" style="rounded=0;whiteSpace=wrap;html=1;fillColor=#dae8fc;strokeColor=#6c8ebf;labelBackgroundColor=none;fontFamily=Comic Sans MS;sketch=1;" parent="QvUOqVYTQdIpEU6lqNF--1" vertex="1">
          <mxGeometry x="30" y="40" width="210" height="40" as="geometry" />
        </mxCell>
        <mxCell id="C8a3xosEw6g6q-aKjf3i-1" style="edgeStyle=orthogonalEdgeStyle;rounded=0;sketch=1;orthogonalLoop=1;jettySize=auto;html=1;exitX=0.75;exitY=1;exitDx=0;exitDy=0;fontFamily=Comic Sans MS;fontSize=12;startArrow=none;startFill=0;endArrow=classic;endFill=1;entryX=1;entryY=0.5;entryDx=0;entryDy=0;" parent="QvUOqVYTQdIpEU6lqNF--1" source="_fAnJ0pNlTwdmAmG-x47-0" target="2SHwtGhu0xTXhVNuLxnT-1" edge="1">
          <mxGeometry relative="1" as="geometry">
            <mxPoint x="759" y="380" as="targetPoint" />
            <Array as="points">
              <mxPoint x="759" y="390" />
            </Array>
          </mxGeometry>
        </mxCell>
        <mxCell id="_fAnJ0pNlTwdmAmG-x47-0" value="Virtual &lt;br&gt;Machine" style="rounded=1;whiteSpace=wrap;html=1;absoluteArcSize=1;arcSize=14;strokeWidth=2;labelBackgroundColor=none;sketch=1;fontFamily=Comic Sans MS;fontSize=12;fillColor=#ffe6cc;strokeColor=#d79b00;" parent="QvUOqVYTQdIpEU6lqNF--1" vertex="1">
          <mxGeometry x="650" y="45" width="145" height="50" as="geometry" />
        </mxCell>
        <mxCell id="r7YT03Z_rsX2-cj2O4oS-8" style="edgeStyle=orthogonalEdgeStyle;rounded=0;sketch=1;orthogonalLoop=1;jettySize=auto;html=1;exitX=1;exitY=0.5;exitDx=0;exitDy=0;fontFamily=Comic Sans MS;fontSize=12;startFill=1;endFill=0;endArrow=none;startArrow=classic;fillColor=#ffe6cc;strokeColor=#d79b00;" parent="QvUOqVYTQdIpEU6lqNF--1" source="r7YT03Z_rsX2-cj2O4oS-0" edge="1">
          <mxGeometry relative="1" as="geometry">
            <mxPoint x="720" y="100" as="targetPoint" />
          </mxGeometry>
        </mxCell>
        <mxCell id="r7YT03Z_rsX2-cj2O4oS-0" value="&lt;span style=&quot;color: rgb(0 , 0 , 0) ; font-size: 12px ; font-style: normal ; font-weight: 400 ; letter-spacing: normal ; text-align: center ; text-indent: 0px ; text-transform: none ; word-spacing: 0px ; display: inline ; float: none&quot;&gt;Synthetic Control&lt;/span&gt;" style="rounded=1;whiteSpace=wrap;html=1;fillColor=#d5e8d4;strokeColor=#82b366;labelBackgroundColor=none;sketch=1;fontFamily=Comic Sans MS;glass=0;shadow=0;" parent="QvUOqVYTQdIpEU6lqNF--1" vertex="1">
          <mxGeometry x="150" y="120" width="370" height="60" as="geometry" />
        </mxCell>
        <mxCell id="r7YT03Z_rsX2-cj2O4oS-9" value="Data received by &lt;br&gt;synthetic control after execution" style="text;html=1;align=center;verticalAlign=middle;resizable=0;points=[];autosize=1;strokeColor=none;fontSize=12;fontFamily=Comic Sans MS;" parent="QvUOqVYTQdIpEU6lqNF--1" vertex="1">
          <mxGeometry x="540" y="160" width="200" height="30" as="geometry" />
        </mxCell>
        <mxCell id="4lI5wMCjbL4MYzzkrh67-2" style="edgeStyle=orthogonalEdgeStyle;rounded=0;sketch=1;orthogonalLoop=1;jettySize=auto;html=1;exitX=0.5;exitY=0;exitDx=0;exitDy=0;entryX=0.951;entryY=1;entryDx=0;entryDy=0;entryPerimeter=0;fontFamily=Comic Sans MS;fontSize=12;startArrow=classic;startFill=1;endArrow=none;endFill=0;fillColor=#d5e8d4;strokeColor=#82b366;" parent="QvUOqVYTQdIpEU6lqNF--1" source="4lI5wMCjbL4MYzzkrh67-0" target="r7YT03Z_rsX2-cj2O4oS-0" edge="1">
          <mxGeometry relative="1" as="geometry" />
        </mxCell>
        <mxCell id="4lI5wMCjbL4MYzzkrh67-0" value="Verify Data" style="ellipse;whiteSpace=wrap;html=1;rounded=1;shadow=0;glass=0;labelBackgroundColor=none;sketch=1;fontFamily=Comic Sans MS;fontSize=12;gradientColor=none;" parent="QvUOqVYTQdIpEU6lqNF--1" vertex="1">
          <mxGeometry x="435" y="245" width="135" height="60" as="geometry" />
        </mxCell>
        <mxCell id="4lI5wMCjbL4MYzzkrh67-3" value="Validates against the session ID &lt;br&gt;that is sent uniquely by the VM" style="text;html=1;align=center;verticalAlign=middle;resizable=0;points=[];autosize=1;strokeColor=none;fontSize=12;fontFamily=Comic Sans MS;" parent="QvUOqVYTQdIpEU6lqNF--1" vertex="1">
          <mxGeometry x="410" y="315" width="200" height="30" as="geometry" />
        </mxCell>
        <mxCell id="4lI5wMCjbL4MYzzkrh67-4" value="Data" style="swimlane;fontStyle=0;childLayout=stackLayout;horizontal=1;startSize=26;horizontalStack=0;resizeParent=1;resizeParentMax=0;resizeLast=0;collapsible=1;marginBottom=0;rounded=1;shadow=0;glass=0;labelBackgroundColor=none;sketch=1;fontFamily=Comic Sans MS;fontSize=12;gradientColor=none;" parent="QvUOqVYTQdIpEU6lqNF--1" vertex="1">
          <mxGeometry x="240" y="220" width="100" height="104" as="geometry">
            <mxRectangle x="220" y="285" width="60" height="26" as="alternateBounds" />
          </mxGeometry>
        </mxCell>
        <mxCell id="4lI5wMCjbL4MYzzkrh67-5" value="Response Time" style="text;strokeColor=none;fillColor=none;align=left;verticalAlign=top;spacingLeft=4;spacingRight=4;overflow=hidden;rotatable=0;points=[[0,0.5],[1,0.5]];portConstraint=eastwest;fontFamily=Comic Sans MS;" parent="4lI5wMCjbL4MYzzkrh67-4" vertex="1">
          <mxGeometry y="26" width="100" height="26" as="geometry" />
        </mxCell>
        <mxCell id="4lI5wMCjbL4MYzzkrh67-6" value="Execution Time" style="text;strokeColor=none;fillColor=none;align=left;verticalAlign=top;spacingLeft=4;spacingRight=4;overflow=hidden;rotatable=0;points=[[0,0.5],[1,0.5]];portConstraint=eastwest;fontFamily=Comic Sans MS;" parent="4lI5wMCjbL4MYzzkrh67-4" vertex="1">
          <mxGeometry y="52" width="100" height="26" as="geometry" />
        </mxCell>
        <mxCell id="4lI5wMCjbL4MYzzkrh67-7" value="Location" style="text;strokeColor=none;fillColor=none;align=left;verticalAlign=top;spacingLeft=4;spacingRight=4;overflow=hidden;rotatable=0;points=[[0,0.5],[1,0.5]];portConstraint=eastwest;fontFamily=Comic Sans MS;" parent="4lI5wMCjbL4MYzzkrh67-4" vertex="1">
          <mxGeometry y="78" width="100" height="26" as="geometry" />
        </mxCell>
        <mxCell id="4lI5wMCjbL4MYzzkrh67-9" style="edgeStyle=orthogonalEdgeStyle;rounded=0;sketch=1;orthogonalLoop=1;jettySize=auto;html=1;entryX=0.037;entryY=0.667;entryDx=0;entryDy=0;entryPerimeter=0;fontFamily=Comic Sans MS;fontSize=12;startArrow=classic;startFill=1;endArrow=none;endFill=0;" parent="QvUOqVYTQdIpEU6lqNF--1" source="4lI5wMCjbL4MYzzkrh67-6" target="4lI5wMCjbL4MYzzkrh67-0" edge="1">
          <mxGeometry relative="1" as="geometry" />
        </mxCell>
        <mxCell id="2SHwtGhu0xTXhVNuLxnT-3" style="edgeStyle=orthogonalEdgeStyle;rounded=0;sketch=1;orthogonalLoop=1;jettySize=auto;html=1;exitX=0.5;exitY=0;exitDx=0;exitDy=0;entryX=0.65;entryY=1.231;entryDx=0;entryDy=0;entryPerimeter=0;fontFamily=Comic Sans MS;fontSize=12;startArrow=classic;startFill=1;endArrow=none;endFill=0;" parent="QvUOqVYTQdIpEU6lqNF--1" source="2SHwtGhu0xTXhVNuLxnT-1" target="4lI5wMCjbL4MYzzkrh67-7" edge="1">
          <mxGeometry relative="1" as="geometry" />
        </mxCell>
        <mxCell id="EgCHxapOaB4564iDI8eQ-0" style="edgeStyle=orthogonalEdgeStyle;rounded=0;sketch=1;orthogonalLoop=1;jettySize=auto;html=1;exitX=0;exitY=0.5;exitDx=0;exitDy=0;entryX=0.5;entryY=1;entryDx=0;entryDy=0;fontFamily=Comic Sans MS;fontSize=12;startArrow=none;startFill=0;endArrow=classic;endFill=1;" parent="QvUOqVYTQdIpEU6lqNF--1" source="2SHwtGhu0xTXhVNuLxnT-1" target="2SHwtGhu0xTXhVNuLxnT-2" edge="1">
          <mxGeometry relative="1" as="geometry" />
        </mxCell>
        <mxCell id="2SHwtGhu0xTXhVNuLxnT-1" value="Data Controller" style="shape=process;whiteSpace=wrap;html=1;backgroundOutline=1;rounded=1;shadow=0;glass=0;labelBackgroundColor=none;sketch=1;fontFamily=Comic Sans MS;fontSize=12;gradientColor=none;" parent="QvUOqVYTQdIpEU6lqNF--1" vertex="1">
          <mxGeometry x="215" y="360" width="180" height="60" as="geometry" />
        </mxCell>
        <mxCell id="EgCHxapOaB4564iDI8eQ-1" style="edgeStyle=orthogonalEdgeStyle;rounded=0;sketch=1;orthogonalLoop=1;jettySize=auto;html=1;exitX=0.5;exitY=0;exitDx=0;exitDy=0;entryX=0.357;entryY=1.033;entryDx=0;entryDy=0;entryPerimeter=0;fontFamily=Comic Sans MS;fontSize=12;startArrow=none;startFill=0;endArrow=classic;endFill=1;" parent="QvUOqVYTQdIpEU6lqNF--1" source="2SHwtGhu0xTXhVNuLxnT-2" target="OY84xX7fRf7kpnk30Q0Z-0" edge="1">
          <mxGeometry relative="1" as="geometry" />
        </mxCell>
        <mxCell id="2SHwtGhu0xTXhVNuLxnT-2" value="&lt;h1&gt;API Selector&lt;/h1&gt;&lt;p&gt;Based on the data received from the data controller, state of the execution is sent to Dynatrace via API calls&lt;/p&gt;" style="text;html=1;strokeColor=none;fillColor=none;spacing=5;spacingTop=-20;whiteSpace=wrap;overflow=hidden;rounded=0;shadow=0;glass=0;labelBackgroundColor=none;sketch=1;fontFamily=Comic Sans MS;fontSize=12;" parent="QvUOqVYTQdIpEU6lqNF--1" vertex="1">
          <mxGeometry x="10" y="215" width="190" height="120" as="geometry" />
        </mxCell>
        <mxCell id="EgCHxapOaB4564iDI8eQ-2" value="Process of sending data to Dynatrace from Synthetic control" style="text;html=1;align=center;verticalAlign=middle;resizable=0;points=[];autosize=1;strokeColor=none;fontSize=12;fontFamily=Comic Sans MS;" parent="QvUOqVYTQdIpEU6lqNF--1" vertex="1">
          <mxGeometry x="250" y="450" width="360" height="20" as="geometry" />
        </mxCell>
        <mxCell id="C8a3xosEw6g6q-aKjf3i-0" value="" style="endArrow=none;dashed=1;html=1;fontFamily=Comic Sans MS;fontSize=12;" parent="QvUOqVYTQdIpEU6lqNF--1" edge="1">
          <mxGeometry width="50" height="50" relative="1" as="geometry">
            <mxPoint x="400" y="270" as="sourcePoint" />
            <mxPoint x="450" y="220" as="targetPoint" />
          </mxGeometry>
        </mxCell>
      </root>
    </mxGraphModel>
  </diagram>
</mxfile>
